<svg width="19" height="77" viewBox="0 0 19 77" fill="none" xmlns="http://www.w3.org/2000/svg">
<path d="M16.8139 0.647999V18H13.5739V10.416H5.42591V18H2.18591V0.647999H5.42591V8.112H13.5739V0.647999H16.8139ZM18.9043 29.648V47H16.0603V35.792C16.0603 35.344 16.0843 34.86 16.1323 34.34L10.8883 44.192C10.6403 44.664 10.2603 44.9 9.74825 44.9H9.29225C8.78025 44.9 8.40025 44.664 8.15225 44.192L2.84825 34.304C2.87225 34.568 2.89225 34.828 2.90825 35.084C2.92425 35.34 2.93225 35.576 2.93225 35.792V47H0.0882502V29.648H2.52425C2.66825 29.648 2.79225 29.652 2.89625 29.66C3.00025 29.668 3.09225 29.688 3.17225 29.72C3.26025 29.752 3.33625 29.804 3.40025 29.876C3.47225 29.948 3.54025 30.044 3.60425 30.164L8.80025 39.8C8.93625 40.056 9.06025 40.32 9.17225 40.592C9.29225 40.864 9.40825 41.144 9.52025 41.432C9.63225 41.136 9.74825 40.852 9.86825 40.58C9.98825 40.3 10.1163 40.032 10.2523 39.776L15.3763 30.164C15.4403 30.044 15.5083 29.948 15.5803 29.876C15.6523 29.804 15.7283 29.752 15.8083 29.72C15.8963 29.688 15.9923 29.668 16.0963 29.66C16.2003 29.652 16.3243 29.648 16.4683 29.648H18.9043Z" fill="white"/>
<path d="M7.91966 67.372C8.51166 67.372 9.02766 67.3 9.46766 67.156C9.90766 67.004 10.2717 66.792 10.5597 66.52C10.8557 66.24 11.0757 65.904 11.2197 65.512C11.3637 65.112 11.4357 64.668 11.4357 64.18C11.4357 63.716 11.3637 63.296 11.2197 62.92C11.0757 62.544 10.8597 62.224 10.5717 61.96C10.2837 61.696 9.91966 61.496 9.47966 61.36C9.03966 61.216 8.51966 61.144 7.91966 61.144H5.50766V67.372H7.91966ZM7.91966 58.648C9.07966 58.648 10.0837 58.784 10.9317 59.056C11.7797 59.328 12.4797 59.708 13.0317 60.196C13.5837 60.684 13.9917 61.268 14.2557 61.948C14.5277 62.628 14.6637 63.372 14.6637 64.18C14.6637 65.02 14.5237 65.792 14.2437 66.496C13.9637 67.192 13.5437 67.792 12.9837 68.296C12.4237 68.8 11.7197 69.192 10.8717 69.472C10.0317 69.752 9.04766 69.892 7.91966 69.892H5.50766V76H2.27966V58.648H7.91966ZM13.989 74.368C13.989 74.12 14.033 73.884 14.121 73.66C14.217 73.436 14.345 73.244 14.505 73.084C14.665 72.924 14.857 72.796 15.081 72.7C15.305 72.604 15.545 72.556 15.801 72.556C16.057 72.556 16.293 72.604 16.509 72.7C16.733 72.796 16.925 72.924 17.085 73.084C17.253 73.244 17.385 73.436 17.481 73.66C17.577 73.884 17.625 74.12 17.625 74.368C17.625 74.624 17.577 74.864 17.481 75.088C17.385 75.304 17.253 75.492 17.085 75.652C16.925 75.812 16.733 75.936 16.509 76.024C16.293 76.12 16.057 76.168 15.801 76.168C15.545 76.168 15.305 76.12 15.081 76.024C14.857 75.936 14.665 75.812 14.505 75.652C14.345 75.492 14.217 75.304 14.121 75.088C14.033 74.864 13.989 74.624 13.989 74.368Z" fill="#357DAC"/>
</svg>
