<svg width="128" height="19" viewBox="0 0 128 19" fill="none" xmlns="http://www.w3.org/2000/svg">
<path d="M15.2319 0.647999V18H11.9919V10.416H3.84388V18H0.603875V0.647999H3.84388V8.112H11.9919V0.647999H15.2319ZM21.536 5.688V18H18.56V5.688H21.536ZM21.944 2.1C21.944 2.356 21.892 2.596 21.788 2.82C21.684 3.044 21.544 3.24 21.368 3.408C21.2 3.576 21 3.712 20.768 3.816C20.536 3.912 20.288 3.96 20.024 3.96C19.768 3.96 19.524 3.912 19.292 3.816C19.068 3.712 18.872 3.576 18.704 3.408C18.536 3.24 18.4 3.044 18.296 2.82C18.2 2.596 18.152 2.356 18.152 2.1C18.152 1.836 18.2 1.588 18.296 1.356C18.4 1.124 18.536 0.924 18.704 0.756C18.872 0.587999 19.068 0.455999 19.292 0.36C19.524 0.256 19.768 0.204 20.024 0.204C20.288 0.204 20.536 0.256 20.768 0.36C21 0.455999 21.2 0.587999 21.368 0.756C21.544 0.924 21.684 1.124 21.788 1.356C21.892 1.588 21.944 1.836 21.944 2.1ZM27.3538 7.824C27.7378 7.088 28.1938 6.512 28.7218 6.096C29.2498 5.672 29.8738 5.46 30.5938 5.46C31.1618 5.46 31.6178 5.584 31.9618 5.832L31.7698 8.052C31.7298 8.196 31.6698 8.3 31.5898 8.364C31.5178 8.42 31.4178 8.448 31.2898 8.448C31.1698 8.448 30.9898 8.428 30.7498 8.388C30.5178 8.348 30.2898 8.328 30.0658 8.328C29.7378 8.328 29.4458 8.376 29.1898 8.472C28.9338 8.568 28.7018 8.708 28.4938 8.892C28.2938 9.068 28.1138 9.284 27.9538 9.54C27.8018 9.796 27.6578 10.088 27.5218 10.416V18H24.5578V5.688H26.2978C26.6018 5.688 26.8138 5.744 26.9338 5.856C27.0538 5.96 27.1338 6.152 27.1738 6.432L27.3538 7.824ZM41.0913 10.428C41.0913 10.044 41.0353 9.684 40.9233 9.348C40.8193 9.004 40.6593 8.704 40.4433 8.448C40.2273 8.192 39.9513 7.992 39.6153 7.848C39.2873 7.696 38.9033 7.62 38.4633 7.62C37.6073 7.62 36.9313 7.864 36.4353 8.352C35.9473 8.84 35.6353 9.532 35.4993 10.428H41.0913ZM35.4393 12.216C35.4873 12.848 35.5993 13.396 35.7753 13.86C35.9513 14.316 36.1833 14.696 36.4713 15C36.7593 15.296 37.0993 15.52 37.4913 15.672C37.8913 15.816 38.3313 15.888 38.8113 15.888C39.2913 15.888 39.7033 15.832 40.0473 15.72C40.3993 15.608 40.7033 15.484 40.9593 15.348C41.2233 15.212 41.4513 15.088 41.6433 14.976C41.8433 14.864 42.0353 14.808 42.2193 14.808C42.4673 14.808 42.6513 14.9 42.7713 15.084L43.6233 16.164C43.2953 16.548 42.9273 16.872 42.5193 17.136C42.1113 17.392 41.6833 17.6 41.2353 17.76C40.7953 17.912 40.3433 18.02 39.8793 18.084C39.4233 18.148 38.9793 18.18 38.5473 18.18C37.6913 18.18 36.8953 18.04 36.1593 17.76C35.4233 17.472 34.7833 17.052 34.2393 16.5C33.6953 15.94 33.2673 15.252 32.9553 14.436C32.6433 13.612 32.4873 12.66 32.4873 11.58C32.4873 10.74 32.6233 9.952 32.8953 9.216C33.1673 8.472 33.5553 7.828 34.0593 7.284C34.5713 6.732 35.1913 6.296 35.9193 5.976C36.6553 5.656 37.4833 5.496 38.4033 5.496C39.1793 5.496 39.8953 5.62 40.5513 5.868C41.2073 6.116 41.7713 6.48 42.2433 6.96C42.7153 7.432 43.0833 8.016 43.3473 8.712C43.6193 9.4 43.7553 10.188 43.7553 11.076C43.7553 11.524 43.7073 11.828 43.6113 11.988C43.5153 12.14 43.3313 12.216 43.0593 12.216H35.4393ZM71.0996 0.647999V18H68.2556V6.792C68.2556 6.344 68.2796 5.86 68.3276 5.34L63.0836 15.192C62.8356 15.664 62.4556 15.9 61.9436 15.9H61.4876C60.9756 15.9 60.5956 15.664 60.3476 15.192L55.0436 5.304C55.0676 5.568 55.0876 5.828 55.1036 6.084C55.1196 6.34 55.1276 6.576 55.1276 6.792V18H52.2836V0.647999H54.7196C54.8636 0.647999 54.9876 0.651999 55.0916 0.659999C55.1956 0.667999 55.2876 0.687999 55.3676 0.719999C55.4556 0.751999 55.5316 0.803999 55.5956 0.875999C55.6676 0.947999 55.7356 1.044 55.7996 1.164L60.9956 10.8C61.1316 11.056 61.2556 11.32 61.3676 11.592C61.4876 11.864 61.6036 12.144 61.7156 12.432C61.8276 12.136 61.9436 11.852 62.0636 11.58C62.1836 11.3 62.3116 11.032 62.4476 10.776L67.5716 1.164C67.6356 1.044 67.7036 0.947999 67.7756 0.875999C67.8476 0.803999 67.9236 0.751999 68.0036 0.719999C68.0916 0.687999 68.1876 0.667999 68.2916 0.659999C68.3956 0.651999 68.5196 0.647999 68.6636 0.647999H71.0996ZM82.0601 10.428C82.0601 10.044 82.0041 9.684 81.8921 9.348C81.7881 9.004 81.6281 8.704 81.4121 8.448C81.1961 8.192 80.9201 7.992 80.5841 7.848C80.2561 7.696 79.8721 7.62 79.4321 7.62C78.5761 7.62 77.9001 7.864 77.4041 8.352C76.9161 8.84 76.6041 9.532 76.4681 10.428H82.0601ZM76.4081 12.216C76.4561 12.848 76.5681 13.396 76.7441 13.86C76.9201 14.316 77.1521 14.696 77.4401 15C77.7281 15.296 78.0681 15.52 78.4601 15.672C78.8601 15.816 79.3001 15.888 79.7801 15.888C80.2601 15.888 80.6721 15.832 81.0161 15.72C81.3681 15.608 81.6721 15.484 81.9281 15.348C82.1921 15.212 82.4201 15.088 82.6121 14.976C82.8121 14.864 83.0041 14.808 83.1881 14.808C83.4361 14.808 83.6201 14.9 83.7401 15.084L84.5921 16.164C84.2641 16.548 83.8961 16.872 83.4881 17.136C83.0801 17.392 82.6521 17.6 82.2041 17.76C81.7641 17.912 81.3121 18.02 80.8481 18.084C80.3921 18.148 79.9481 18.18 79.5161 18.18C78.6601 18.18 77.8641 18.04 77.1281 17.76C76.3921 17.472 75.7521 17.052 75.2081 16.5C74.6641 15.94 74.2361 15.252 73.9241 14.436C73.6121 13.612 73.4561 12.66 73.4561 11.58C73.4561 10.74 73.5921 9.952 73.8641 9.216C74.1361 8.472 74.5241 7.828 75.0281 7.284C75.5401 6.732 76.1601 6.296 76.8881 5.976C77.6241 5.656 78.4521 5.496 79.3721 5.496C80.1481 5.496 80.8641 5.62 81.5201 5.868C82.1761 6.116 82.7401 6.48 83.2121 6.96C83.6841 7.432 84.0521 8.016 84.3161 8.712C84.5881 9.4 84.7241 10.188 84.7241 11.076C84.7241 11.524 84.6761 11.828 84.5801 11.988C84.4841 12.14 84.3001 12.216 84.0281 12.216H76.4081Z" fill="white"/>
<path d="M98.8923 9.372C99.4843 9.372 100 9.3 100.44 9.156C100.88 9.004 101.244 8.792 101.532 8.52C101.828 8.24 102.048 7.904 102.192 7.512C102.336 7.112 102.408 6.668 102.408 6.18C102.408 5.716 102.336 5.296 102.192 4.92C102.048 4.544 101.832 4.224 101.544 3.96C101.256 3.696 100.892 3.496 100.452 3.36C100.012 3.216 99.4923 3.144 98.8923 3.144H96.4803V9.372H98.8923ZM98.8923 0.647999C100.052 0.647999 101.056 0.783999 101.904 1.056C102.752 1.328 103.452 1.708 104.004 2.196C104.556 2.684 104.964 3.268 105.228 3.948C105.5 4.628 105.636 5.372 105.636 6.18C105.636 7.02 105.496 7.792 105.216 8.496C104.936 9.192 104.516 9.792 103.956 10.296C103.396 10.8 102.692 11.192 101.844 11.472C101.004 11.752 100.02 11.892 98.8923 11.892H96.4803V18H93.2523V0.647999H98.8923ZM110.597 0.167999V18H107.633V0.167999H110.597ZM121.062 8.088C120.982 8.216 120.898 8.308 120.81 8.364C120.722 8.412 120.61 8.436 120.474 8.436C120.33 8.436 120.174 8.396 120.006 8.316C119.846 8.236 119.658 8.148 119.442 8.052C119.226 7.948 118.978 7.856 118.698 7.776C118.426 7.696 118.102 7.656 117.726 7.656C117.142 7.656 116.682 7.78 116.346 8.028C116.018 8.276 115.854 8.6 115.854 9C115.854 9.264 115.938 9.488 116.106 9.672C116.282 9.848 116.51 10.004 116.79 10.14C117.078 10.276 117.402 10.4 117.762 10.512C118.122 10.616 118.486 10.732 118.854 10.86C119.23 10.988 119.598 11.136 119.958 11.304C120.318 11.464 120.638 11.672 120.918 11.928C121.206 12.176 121.434 12.476 121.602 12.828C121.778 13.18 121.866 13.604 121.866 14.1C121.866 14.692 121.758 15.24 121.542 15.744C121.334 16.24 121.022 16.672 120.606 17.04C120.19 17.4 119.674 17.684 119.058 17.892C118.45 18.092 117.746 18.192 116.946 18.192C116.522 18.192 116.106 18.152 115.698 18.072C115.298 18 114.91 17.896 114.534 17.76C114.166 17.624 113.822 17.464 113.502 17.28C113.19 17.096 112.914 16.896 112.674 16.68L113.358 15.552C113.446 15.416 113.55 15.312 113.67 15.24C113.79 15.168 113.942 15.132 114.126 15.132C114.31 15.132 114.482 15.184 114.642 15.288C114.81 15.392 115.002 15.504 115.218 15.624C115.434 15.744 115.686 15.856 115.974 15.96C116.27 16.064 116.642 16.116 117.09 16.116C117.442 16.116 117.742 16.076 117.99 15.996C118.246 15.908 118.454 15.796 118.614 15.66C118.782 15.524 118.902 15.368 118.974 15.192C119.054 15.008 119.094 14.82 119.094 14.628C119.094 14.34 119.006 14.104 118.83 13.92C118.662 13.736 118.434 13.576 118.146 13.44C117.866 13.304 117.542 13.184 117.174 13.08C116.814 12.968 116.442 12.848 116.058 12.72C115.682 12.592 115.31 12.444 114.942 12.276C114.582 12.1 114.258 11.88 113.97 11.616C113.69 11.352 113.462 11.028 113.286 10.644C113.118 10.26 113.034 9.796 113.034 9.252C113.034 8.748 113.134 8.268 113.334 7.812C113.534 7.356 113.826 6.96 114.21 6.624C114.602 6.28 115.086 6.008 115.662 5.808C116.246 5.6 116.918 5.496 117.678 5.496C118.526 5.496 119.298 5.636 119.994 5.916C120.69 6.196 121.27 6.564 121.734 7.02L121.062 8.088ZM123.665 16.368C123.665 16.12 123.709 15.884 123.797 15.66C123.893 15.436 124.021 15.244 124.181 15.084C124.341 14.924 124.533 14.796 124.757 14.7C124.981 14.604 125.221 14.556 125.477 14.556C125.733 14.556 125.969 14.604 126.185 14.7C126.409 14.796 126.601 14.924 126.761 15.084C126.929 15.244 127.061 15.436 127.157 15.66C127.253 15.884 127.301 16.12 127.301 16.368C127.301 16.624 127.253 16.864 127.157 17.088C127.061 17.304 126.929 17.492 126.761 17.652C126.601 17.812 126.409 17.936 126.185 18.024C125.969 18.12 125.733 18.168 125.477 18.168C125.221 18.168 124.981 18.12 124.757 18.024C124.533 17.936 124.341 17.812 124.181 17.652C124.021 17.492 123.893 17.304 123.797 17.088C123.709 16.864 123.665 16.624 123.665 16.368Z" fill="#357DAC"/>
</svg>
